<svg width="200" height="200" viewBox="0 0 200 200" xmlns="http://www.w3.org/2000/svg">
  <!-- Fundo roxo -->
  <defs>
    <linearGradient id="bgGradient" x1="0%" y1="0%" x2="100%" y2="100%">
      <stop offset="0%" style="stop-color:#667eea;stop-opacity:1" />
      <stop offset="100%" style="stop-color:#764ba2;stop-opacity:1" />
    </linearGradient>
    
    <linearGradient id="circleGradient" x1="0%" y1="0%" x2="100%" y2="100%">
      <stop offset="0%" style="stop-color:rgba(255,255,255,0.2);stop-opacity:1" />
      <stop offset="100%" style="stop-color:rgba(255,255,255,0.1);stop-opacity:1" />
    </linearGradient>
    
    <filter id="glow">
      <feGaussianBlur stdDeviation="3" result="coloredBlur"/>
      <feMerge> 
        <feMergeNode in="coloredBlur"/>
        <feMergeNode in="SourceGraphic"/>
      </feMerge>
    </filter>
  </defs>
  
  <!-- Círculo de fundo com gradiente -->
  <circle cx="100" cy="100" r="90" fill="url(#bgGradient)" filter="url(#glow)"/>
  
  <!-- Círculo interno com transparência -->
  <circle cx="100" cy="100" r="70" fill="url(#circleGradient)" stroke="rgba(255,255,255,0.3)" stroke-width="2"/>
  
  <!-- Controle de videogame -->
  <g transform="translate(100, 100)">
    <!-- Corpo do controle (oval horizontal) -->
    <ellipse cx="0" cy="0" rx="45" ry="25" fill="white" stroke="rgba(255,255,255,0.8)" stroke-width="1"/>
    
    <!-- Direcional (cruz) no lado esquerdo -->
    <g transform="translate(-20, 0)">
      <!-- Centro do direcional -->
      <circle cx="0" cy="0" r="8" fill="rgba(0,0,0,0.1)"/>
      
      <!-- Braços do direcional -->
      <rect x="-2" y="-12" width="4" height="12" fill="rgba(0,0,0,0.2)" rx="2"/>
      <rect x="-2" y="0" width="4" height="12" fill="rgba(0,0,0,0.2)" rx="2"/>
      <rect x="-12" y="-2" width="12" height="4" fill="rgba(0,0,0,0.2)" rx="2"/>
      <rect x="0" y="-2" width="12" height="4" fill="rgba(0,0,0,0.2)" rx="2"/>
    </g>
    
    <!-- Botões no lado direito -->
    <g transform="translate(20, 0)">
      <!-- Botão superior -->
      <circle cx="0" cy="-8" r="6" fill="rgba(0,0,0,0.1)"/>
      <circle cx="0" cy="-8" r="4" fill="rgba(0,0,0,0.2)"/>
      
      <!-- Botão inferior direito -->
      <circle cx="6" cy="8" r="6" fill="rgba(0,0,0,0.1)"/>
      <circle cx="6" cy="8" r="4" fill="rgba(0,0,0,0.2)"/>
      
      <!-- Botão inferior esquerdo -->
      <circle cx="-6" cy="8" r="6" fill="rgba(0,0,0,0.1)"/>
      <circle cx="-6" cy="8" r="4" fill="rgba(0,0,0,0.2)"/>
    </g>
    
    <!-- Detalhes do controle -->
    <ellipse cx="0" cy="0" rx="42" ry="22" fill="none" stroke="rgba(255,255,255,0.6)" stroke-width="1" stroke-dasharray="2,2"/>
  </g>
  
  <!-- Efeito de brilho -->
  <circle cx="70" cy="70" r="15" fill="rgba(255,255,255,0.1)" opacity="0.5"/>
</svg> 